<svg id="svg" version="1.1" xmlns="http://www.w3.org/2000/svg" xmlns:xlink="http://www.w3.org/1999/xlink" width="400" height="654.3967280163599" viewBox="0, 0, 400,654.3967280163599"><g id="svgg"><path id="path0" d="M68.406 27.698 C 68.422 57.074,68.462 56.400,66.724 56.400 C 66.179 56.400,66.364 57.472,67.000 58.000 C 67.465 58.386,67.600 59.465,67.600 62.806 C 67.600 66.267,67.482 67.160,67.000 67.345 C 66.096 67.692,66.280 68.958,67.300 69.405 L 68.200 69.800 68.400 104.600 C 68.510 123.740,68.510 141.470,68.400 144.000 C 68.290 146.530,68.290 174.409,68.400 205.954 C 68.563 252.611,68.503 263.446,68.080 264.050 C 67.685 264.614,67.661 265.153,67.978 266.296 C 68.208 267.123,68.397 270.005,68.398 272.700 L 68.400 277.600 81.357 277.600 C 92.803 277.600,94.343 277.526,94.557 276.967 C 94.980 275.865,94.819 270.080,94.336 269.019 C 93.992 268.265,93.987 267.747,94.316 267.025 C 94.707 266.166,94.807 260.360,94.687 245.400 C 94.677 244.080,94.696 233.327,94.730 221.506 L 94.792 200.011 107.696 199.906 L 120.600 199.800 120.600 185.800 L 120.600 171.800 107.700 171.694 L 94.800 171.589 94.800 166.274 C 94.800 162.782,94.959 160.801,95.263 160.497 C 95.614 160.146,95.609 159.893,95.243 159.451 C 94.890 159.026,94.788 156.525,94.867 150.193 C 94.969 141.959,94.935 141.488,94.187 140.937 C 93.449 140.394,93.393 140.440,93.288 141.679 C 93.226 142.405,92.984 143.380,92.749 143.845 C 92.485 144.370,92.430 145.660,92.605 147.245 C 92.920 150.112,93.329 273.748,93.027 275.000 C 92.798 275.952,71.997 276.157,71.057 275.217 C 70.527 274.687,70.380 150.186,70.908 148.300 C 71.077 147.695,71.482 147.200,71.808 147.200 C 72.798 147.200,72.582 143.939,71.500 142.564 L 70.600 141.420 70.497 70.710 L 70.393 -0.000 69.392 -0.000 L 68.390 0.000 68.406 27.698 M93.293 0.790 C 93.611 2.437,89.381 2.388,231.054 2.394 L 366.708 2.400 367.354 1.414 C 367.709 0.872,368.000 0.377,368.000 0.314 C 368.000 0.251,306.165 0.200,230.590 0.200 C 109.703 0.200,93.194 0.271,93.293 0.790 M396.000 25.176 C 396.000 44.177,395.884 50.425,395.525 50.646 C 394.932 51.013,368.630 50.989,368.035 50.622 C 367.735 50.436,367.600 45.892,367.600 35.950 C 367.600 26.787,367.449 21.266,367.186 20.774 C 366.602 19.682,94.920 19.538,93.829 20.629 C 93.263 21.194,93.200 27.069,93.200 79.317 L 93.200 137.378 94.011 136.566 C 94.927 135.651,95.305 110.979,94.438 108.700 C 94.182 108.026,94.176 107.183,94.420 106.330 C 94.629 105.601,94.800 100.731,94.800 95.507 L 94.800 86.009 111.300 85.904 L 127.800 85.800 127.902 53.905 L 128.005 22.009 111.902 21.900 C 103.046 21.840,152.080 21.748,220.868 21.695 C 338.640 21.606,346.005 21.640,347.137 22.290 C 348.275 22.943,348.379 22.943,349.101 22.290 C 350.080 21.403,364.914 21.231,365.476 22.100 C 365.654 22.375,365.890 29.350,366.000 37.600 L 366.200 52.600 371.400 52.874 C 377.786 53.210,376.800 53.203,382.919 52.948 C 386.601 52.794,388.201 52.869,388.619 53.216 C 389.540 53.980,389.490 144.217,388.569 145.235 C 388.003 145.860,388.000 146.030,388.541 146.866 C 389.450 148.272,389.314 211.831,388.400 212.408 C 387.365 213.063,379.725 212.885,378.351 212.175 C 377.347 211.656,377.036 211.639,376.512 212.075 C 376.108 212.412,374.217 212.672,371.241 212.800 L 366.600 213.000 366.497 236.500 L 366.394 260.000 370.764 260.000 C 373.168 260.000,375.419 260.109,375.767 260.243 C 376.752 260.621,376.724 290.979,375.738 292.069 C 375.122 292.749,375.122 292.851,375.738 293.531 C 376.755 294.656,376.679 300.737,375.631 302.069 C 374.873 303.033,374.873 303.053,375.631 303.527 C 376.451 304.039,376.720 306.876,376.049 307.934 C 375.535 308.745,364.082 309.238,348.109 309.136 C 340.579 309.088,334.295 309.172,334.145 309.322 C 333.834 309.633,333.904 314.554,334.256 317.100 C 334.676 320.143,335.003 318.895,334.862 314.787 C 334.762 311.882,334.870 310.598,335.252 310.138 C 335.842 309.426,395.739 309.715,396.630 310.434 C 396.881 310.637,397.254 310.586,397.530 310.310 C 398.548 309.292,397.609 307.162,396.535 308.054 C 394.908 309.405,393.775 298.663,395.253 295.902 C 395.841 294.802,396.800 295.902,396.800 297.676 C 396.800 299.113,397.501 299.135,397.858 297.710 C 398.240 296.188,398.264 289.230,397.892 287.900 C 397.391 286.106,396.800 286.644,396.794 288.900 C 396.787 291.297,396.364 292.225,395.440 291.871 C 394.537 291.524,394.457 261.183,395.358 260.435 C 395.786 260.080,396.051 260.109,396.503 260.560 C 397.931 261.988,398.000 260.878,398.000 236.494 C 398.000 212.315,397.875 210.123,396.601 211.867 C 396.133 212.506,395.901 212.538,394.790 212.119 C 393.738 211.721,393.352 211.744,392.584 212.247 C 391.072 213.238,390.110 212.427,389.801 209.901 C 389.191 204.925,389.765 147.663,390.431 146.998 C 391.395 146.034,393.148 146.842,393.459 148.393 C 393.703 149.615,394.149 149.930,394.600 149.200 C 395.342 148.000,396.800 149.082,396.800 150.833 C 396.800 151.255,396.977 151.600,397.192 151.600 C 398.388 151.600,398.641 141.670,397.475 140.504 C 396.842 139.870,396.800 139.979,396.800 142.265 C 396.800 145.313,396.236 145.949,394.383 144.991 C 393.466 144.517,392.986 144.454,392.674 144.766 C 392.016 145.424,390.120 145.291,389.843 144.567 C 389.526 143.741,389.536 55.279,389.853 54.096 C 390.140 53.025,391.596 52.556,392.737 53.166 C 393.302 53.469,393.875 53.476,394.630 53.189 C 395.496 52.859,395.865 52.916,396.480 53.473 C 397.922 54.777,397.988 53.604,397.994 26.500 L 398.000 0.000 397.000 0.000 L 396.000 0.000 396.000 25.176 M126.800 54.000 L 126.800 84.800 111.400 84.800 L 96.000 84.800 96.000 54.000 L 96.000 23.200 111.400 23.200 L 126.800 23.200 126.800 54.000 M212.899 167.300 L 213.000 299.000 236.700 299.103 L 260.400 299.206 260.400 167.403 L 260.400 35.600 236.599 35.600 L 212.799 35.600 212.899 167.300 M259.400 167.400 L 259.400 297.800 236.700 297.903 L 214.000 298.007 214.000 167.400 L 214.000 36.793 236.700 36.897 L 259.400 37.000 259.400 167.400 M134.000 135.200 L 134.000 157.200 145.400 157.200 L 156.800 157.200 156.800 135.200 L 156.800 113.200 145.400 113.200 L 134.000 113.200 134.000 135.200 M156.000 135.200 L 156.000 156.000 145.400 156.000 L 134.800 156.000 134.800 135.467 C 134.800 124.173,134.920 114.813,135.067 114.667 C 135.213 114.520,139.983 114.400,145.667 114.400 L 156.000 114.400 156.000 135.200 M347.500 145.233 C 346.586 145.764,346.611 146.490,347.566 147.086 C 348.471 147.651,349.355 146.899,349.133 145.752 C 348.966 144.889,348.400 144.709,347.500 145.233 M376.700 145.100 C 375.846 145.294,375.783 146.522,376.592 147.193 C 377.021 147.550,377.076 147.884,376.792 148.416 C 376.015 149.867,376.669 153.175,377.617 152.589 C 378.025 152.337,378.054 145.260,377.647 145.061 C 377.511 144.995,377.085 145.012,376.700 145.100 M75.378 154.835 C 75.231 155.074,75.310 155.470,75.555 155.715 C 75.882 156.042,76.000 155.926,76.000 155.280 C 76.000 154.314,75.792 154.165,75.378 154.835 M119.600 185.800 L 119.600 198.800 107.800 198.800 L 96.000 198.800 96.000 185.800 L 96.000 172.800 107.800 172.800 L 119.600 172.800 119.600 185.800 M94.676 177.100 C 94.575 177.485,94.493 177.170,94.493 176.400 C 94.493 175.630,94.575 175.315,94.676 175.700 C 94.776 176.085,94.776 176.715,94.676 177.100 M395.904 235.900 L 395.800 257.000 381.800 257.000 L 367.800 257.000 367.696 236.400 C 367.639 225.070,367.678 215.575,367.783 215.300 C 367.932 214.913,371.147 214.800,381.991 214.800 L 396.007 214.800 395.904 235.900 M133.200 240.000 L 133.200 262.800 145.400 262.800 L 157.600 262.800 157.600 240.000 L 157.600 217.200 145.400 217.200 L 133.200 217.200 133.200 240.000 M156.303 239.900 L 156.407 261.600 145.403 261.600 L 134.400 261.600 134.400 239.794 L 134.400 217.987 145.300 218.094 L 156.200 218.200 156.303 239.900 M335.180 220.330 C 318.649 224.646,318.482 246.944,334.942 251.964 C 351.041 256.873,363.832 238.649,353.353 225.734 C 349.268 220.699,342.021 218.544,335.180 220.330 M347.330 222.552 C 358.027 227.909,359.189 243.682,349.260 248.768 C 348.457 249.179,346.990 249.940,346.000 250.458 C 341.160 252.991,332.683 251.305,328.248 246.927 C 315.612 234.454,331.239 214.493,347.330 222.552 M347.728 256.893 C 347.168 257.759,347.087 285.161,347.640 286.497 C 348.603 288.822,348.788 286.458,348.794 271.724 C 348.800 257.760,348.636 255.489,347.728 256.893 M388.705 275.953 C 388.780 287.249,388.681 291.861,388.356 292.253 C 388.035 292.640,388.026 292.949,388.326 293.311 C 388.586 293.624,388.761 296.555,388.779 300.919 L 388.809 308.016 387.779 308.408 C 385.763 309.174,379.699 308.899,378.800 308.000 C 377.914 307.114,377.725 304.861,378.428 303.548 C 378.741 302.964,378.725 302.591,378.369 302.163 C 377.715 301.374,377.824 261.294,378.483 260.501 C 378.807 260.109,380.143 260.005,383.759 260.088 L 388.600 260.200 388.705 275.953 M392.167 260.243 C 393.124 260.610,393.128 290.415,392.171 291.371 C 391.367 292.176,390.552 292.174,390.243 291.367 C 389.566 289.604,389.991 260.845,390.700 260.432 C 391.555 259.934,391.411 259.953,392.167 260.243 M346.976 292.200 C 346.208 292.794,346.208 292.806,346.976 293.400 C 348.388 294.491,349.490 293.944,348.999 292.396 C 348.697 291.447,348.034 291.382,346.976 292.200 M392.167 293.443 C 392.818 293.692,393.158 306.201,392.557 307.767 C 392.173 308.769,390.828 308.525,390.390 307.374 C 389.641 305.403,389.895 294.101,390.700 293.632 C 391.555 293.134,391.411 293.153,392.167 293.443 M348.000 302.400 C 348.000 303.186,348.235 303.198,361.100 303.106 L 374.200 303.012 361.944 302.900 C 351.687 302.807,349.608 302.692,349.195 302.194 C 348.508 301.366,348.000 301.453,348.000 302.400 M335.206 321.100 C 335.209 321.485,335.387 322.070,335.600 322.400 C 335.894 322.855,335.989 322.686,335.994 321.700 C 335.997 320.985,335.820 320.400,335.600 320.400 C 335.380 320.400,335.203 320.715,335.206 321.100 M396.928 322.800 C 396.928 324.230,397.001 324.815,397.089 324.100 C 397.178 323.385,397.178 322.215,397.089 321.500 C 397.001 320.785,396.928 321.370,396.928 322.800 M69.062 321.685 C 68.745 321.881,68.579 324.234,68.532 329.202 C 68.480 334.731,68.305 336.939,67.787 338.585 C 67.154 340.597,67.154 340.852,67.776 342.481 C 68.812 345.193,68.558 404.785,67.502 406.600 C 67.119 407.260,66.797 408.430,66.788 409.200 C 66.779 409.970,66.514 411.050,66.200 411.600 C 65.886 412.150,65.616 413.320,65.601 414.200 C 65.587 415.080,65.310 416.149,64.987 416.576 C 64.664 417.004,64.400 417.954,64.400 418.689 C 64.400 419.424,64.142 420.643,63.827 421.398 C 63.512 422.152,63.125 423.630,62.967 424.681 C 62.809 425.733,62.461 427.115,62.192 427.753 C 61.295 429.887,62.809 431.200,66.166 431.200 C 66.757 431.200,67.726 431.445,68.320 431.744 C 68.914 432.043,70.251 432.399,71.291 432.535 C 72.331 432.671,73.501 432.947,73.891 433.149 C 74.281 433.350,75.500 433.700,76.600 433.926 C 79.164 434.453,81.710 435.114,84.083 435.869 C 86.031 436.489,86.800 436.355,86.800 435.397 C 86.800 434.748,82.062 433.303,76.837 432.360 C 75.647 432.145,74.477 431.841,74.237 431.685 C 73.997 431.528,72.810 431.187,71.600 430.927 C 62.974 429.071,63.877 429.592,64.211 426.662 C 64.365 425.308,64.657 423.886,64.859 423.501 C 65.061 423.117,65.407 421.767,65.629 420.501 C 65.850 419.236,66.187 417.840,66.379 417.400 C 66.570 416.960,67.125 414.800,67.612 412.600 C 68.099 410.400,68.677 408.060,68.897 407.400 C 70.018 404.028,70.133 401.242,70.361 372.000 C 70.493 355.170,70.750 341.168,70.933 340.885 C 71.116 340.601,71.077 339.521,70.845 338.485 C 70.613 337.448,70.149 335.393,69.812 333.918 C 69.017 330.434,69.012 327.045,69.800 326.257 C 70.130 325.927,70.400 325.201,70.400 324.643 C 70.400 324.049,70.721 323.456,71.174 323.214 C 72.328 322.596,92.097 322.657,92.720 323.280 C 93.088 323.648,93.200 335.236,93.200 373.000 C 93.200 410.764,93.312 422.352,93.680 422.720 C 94.651 423.691,180.275 423.381,182.200 422.400 L 183.769 421.600 139.917 421.600 C 115.799 421.600,95.781 421.491,95.433 421.357 C 94.861 421.138,94.799 416.383,94.794 371.657 C 94.791 344.456,94.656 322.020,94.494 321.800 C 94.155 321.339,69.800 321.229,69.062 321.685 M336.652 325.115 C 336.510 325.345,336.608 326.043,336.869 326.666 C 337.316 327.735,337.352 327.749,337.498 326.912 C 337.681 325.861,337.037 324.492,336.652 325.115 M339.200 330.953 C 339.200 331.283,339.380 331.664,339.600 331.800 C 339.820 331.936,340.000 331.777,340.000 331.447 C 340.000 331.117,339.820 330.736,339.600 330.600 C 339.380 330.464,339.200 330.623,339.200 330.953 M340.416 333.400 C 340.423 333.840,340.871 334.740,341.412 335.400 C 342.258 336.432,342.394 336.488,342.384 335.800 C 342.377 335.360,341.929 334.460,341.388 333.800 C 340.542 332.768,340.406 332.712,340.416 333.400 M396.901 337.800 C 396.905 338.680,396.987 338.993,397.083 338.495 C 397.179 337.998,397.175 337.278,397.075 336.895 C 396.975 336.513,396.896 336.920,396.901 337.800 M345.600 340.834 C 345.600 341.179,346.050 341.883,346.600 342.400 C 347.150 342.917,347.600 343.120,347.600 342.852 C 347.600 342.584,347.150 341.880,346.600 341.287 C 345.885 340.516,345.600 340.387,345.600 340.834 M353.138 348.440 C 353.874 349.109,354.586 349.547,354.721 349.412 C 355.018 349.115,352.852 347.195,352.238 347.212 C 351.997 347.218,352.402 347.771,353.138 348.440 M359.600 352.773 C 359.600 352.978,360.005 353.272,360.500 353.427 C 360.995 353.581,361.510 353.878,361.643 354.086 C 361.777 354.294,362.407 354.389,363.043 354.298 L 364.200 354.132 362.909 353.818 C 362.199 353.645,361.412 353.255,361.160 352.952 C 360.641 352.327,359.600 352.208,359.600 352.773 M365.200 355.200 C 365.200 355.420,365.695 355.597,366.300 355.594 C 367.157 355.589,367.268 355.502,366.800 355.200 C 366.017 354.694,365.200 354.694,365.200 355.200 M368.701 356.233 C 368.172 356.762,368.851 357.200,370.200 357.200 C 370.944 357.200,371.664 357.020,371.800 356.800 C 371.936 356.580,371.722 356.398,371.324 356.395 C 370.926 356.392,370.235 356.291,369.790 356.171 C 369.344 356.052,368.854 356.079,368.701 356.233 M396.446 357.082 C 395.972 357.595,394.249 357.665,384.646 357.559 C 374.954 357.453,373.423 357.516,373.568 358.018 C 374.954 362.830,375.038 362.800,360.347 362.800 C 348.526 362.800,346.939 362.953,348.169 363.974 C 348.552 364.292,348.811 364.307,348.988 364.019 C 349.378 363.388,372.886 363.446,373.520 364.080 C 374.231 364.791,374.212 410.216,373.500 410.676 C 373.225 410.854,371.470 411.090,369.600 411.200 L 366.200 411.400 366.086 415.976 C 366.024 418.492,365.785 420.777,365.557 421.052 C 365.228 421.448,354.910 421.560,316.320 421.584 C 289.469 421.601,267.342 421.712,267.150 421.831 C 266.592 422.176,266.712 433.352,267.280 433.920 C 267.914 434.554,317.780 434.616,319.439 433.985 C 320.199 433.696,321.164 433.702,322.620 434.004 C 326.198 434.747,326.073 434.225,325.927 447.762 C 325.798 459.777,325.855 460.274,327.279 459.543 C 327.652 459.351,340.162 459.241,355.079 459.297 L 382.200 459.400 382.200 460.800 L 382.200 462.200 354.800 462.200 C 339.730 462.200,327.130 462.110,326.800 462.000 C 326.444 461.881,326.200 462.044,326.200 462.400 C 326.200 462.927,329.600 463.012,354.000 463.100 C 379.788 463.193,381.837 463.250,382.310 463.890 C 382.733 464.463,382.954 464.497,383.604 464.090 C 385.523 462.892,388.340 463.459,388.618 465.100 C 388.759 465.925,389.036 467.230,389.234 468.000 C 389.709 469.840,389.683 474.188,389.185 476.200 C 388.571 478.683,388.373 482.002,388.793 482.787 C 389.002 483.178,389.195 485.998,389.222 489.055 C 389.256 492.943,389.436 494.910,389.821 495.606 L 390.372 496.600 390.386 495.176 C 390.394 494.394,390.664 493.404,390.987 492.976 C 391.744 491.976,391.747 490.850,391.000 489.062 C 390.320 487.433,390.191 483.376,390.808 482.995 C 391.032 482.857,391.198 482.081,391.176 481.272 C 391.154 480.462,391.260 478.981,391.411 477.980 C 391.601 476.725,391.486 475.572,391.043 474.266 C 389.673 470.231,390.636 461.070,392.170 463.551 C 392.581 464.217,392.442 510.918,392.027 511.333 C 391.795 511.565,391.360 511.225,390.881 510.438 L 390.110 509.169 389.876 510.607 C 389.548 512.629,389.875 513.200,391.363 513.200 C 392.065 513.200,392.828 513.388,393.057 513.617 C 393.346 513.906,393.625 513.852,393.966 513.441 C 394.637 512.633,394.597 463.884,393.924 461.954 C 393.386 460.411,394.488 459.200,396.429 459.200 L 397.570 459.200 397.685 435.100 C 397.775 416.264,397.691 410.872,397.300 410.414 C 396.915 409.964,396.800 409.950,396.800 410.356 C 396.800 410.738,396.330 410.835,395.100 410.707 C 394.165 410.610,393.040 410.658,392.600 410.814 C 392.160 410.970,391.395 410.947,390.900 410.762 L 390.000 410.426 390.000 385.502 C 390.000 357.602,390.073 356.932,392.835 359.431 C 393.471 360.007,393.624 360.003,394.576 359.379 C 395.562 358.733,395.663 358.733,396.378 359.380 C 397.097 360.031,397.159 360.025,397.568 359.259 C 398.452 357.608,397.559 355.875,396.446 357.082 M388.494 359.341 C 389.164 360.387,388.846 410.697,388.167 410.957 C 386.939 411.429,376.585 411.225,376.080 410.720 C 375.244 409.884,375.404 364.653,376.246 363.811 C 376.841 363.216,376.841 363.108,376.246 362.451 C 375.522 361.651,375.422 360.678,375.962 359.674 C 376.412 358.835,387.973 358.529,388.494 359.341 M130.000 382.400 L 130.000 394.800 153.200 394.800 L 176.400 394.800 176.400 382.400 L 176.400 370.000 153.200 370.000 L 130.000 370.000 130.000 382.400 M175.200 382.200 L 175.200 393.600 153.200 393.600 L 131.200 393.600 131.200 382.200 L 131.200 370.800 153.200 370.800 L 175.200 370.800 175.200 382.200 M347.365 374.245 C 346.961 376.398,347.466 384.708,348.140 387.000 C 348.706 388.925,348.730 388.696,348.764 380.900 C 348.794 374.062,348.709 372.800,348.218 372.800 C 347.866 372.800,347.529 373.372,347.365 374.245 M347.881 399.157 C 347.169 400.895,347.242 402.931,348.034 403.421 C 348.632 403.791,348.850 402.695,348.721 399.958 L 348.600 397.400 347.881 399.157 M395.903 435.500 L 396.007 457.600 362.046 457.600 C 331.448 457.600,328.062 457.537,327.843 456.967 C 327.709 456.619,327.600 451.241,327.600 445.016 C 327.600 435.171,327.517 433.629,326.966 433.171 C 326.455 432.747,320.755 432.641,297.666 432.622 L 269.000 432.600 269.000 428.000 L 269.000 423.400 317.800 423.301 C 363.117 423.209,366.636 423.153,367.100 422.524 C 367.418 422.093,367.600 420.451,367.600 418.004 C 367.600 412.745,366.276 413.172,382.185 413.295 L 395.800 413.400 395.903 435.500 M197.023 422.037 C 197.186 422.302,197.896 422.403,198.750 422.284 C 202.069 421.820,219.213 422.574,219.609 423.200 C 220.414 424.475,220.080 432.063,219.177 433.025 L 218.353 433.901 219.434 434.173 C 221.112 434.594,221.230 434.143,221.111 427.769 L 221.000 421.800 208.873 421.694 C 199.984 421.616,196.820 421.708,197.023 422.037 M87.280 433.039 C 86.373 433.701,87.242 434.037,89.685 433.970 C 90.848 433.938,101.070 433.841,112.400 433.754 C 123.730 433.667,133.258 433.500,133.574 433.382 C 134.970 432.862,155.799 433.127,155.911 433.667 C 156.031 434.247,195.238 434.495,195.814 433.919 C 196.246 433.488,194.114 433.077,192.802 433.340 C 192.126 433.475,191.004 433.310,190.139 432.949 C 188.258 432.163,88.361 432.250,87.280 433.039 M210.515 433.896 C 211.788 433.976,213.768 433.975,214.915 433.894 C 216.062 433.814,215.020 433.749,212.600 433.750 C 210.180 433.751,209.242 433.816,210.515 433.896 M178.492 447.100 L 178.600 456.200 188.900 456.307 L 199.200 456.414 199.200 447.207 L 199.200 438.000 188.792 438.000 L 178.385 438.000 178.492 447.100 M198.000 447.000 L 198.000 455.200 188.800 455.200 L 179.600 455.200 179.600 447.267 C 179.600 442.903,179.720 439.213,179.867 439.067 C 180.013 438.920,184.153 438.800,189.067 438.800 L 198.000 438.800 198.000 447.000 M0.000 440.000 C 0.000 440.220,0.450 440.400,1.000 440.400 C 1.550 440.400,2.000 440.220,2.000 440.000 C 2.000 439.780,1.550 439.600,1.000 439.600 C 0.450 439.600,0.000 439.780,0.000 440.000 M2.600 440.000 C 2.453 440.238,2.927 440.400,3.769 440.400 C 4.946 440.400,5.227 440.569,5.436 441.400 C 5.730 442.573,6.800 442.753,6.800 441.629 C 6.800 440.343,3.241 438.962,2.600 440.000 M295.157 443.342 C 277.338 450.672,279.921 475.728,298.836 479.030 C 314.977 481.848,326.632 463.594,317.327 450.070 C 312.778 443.459,302.474 440.332,295.157 443.342 M308.400 444.334 C 320.035 448.882,323.276 463.670,314.625 472.740 C 300.780 487.255,277.146 470.924,285.992 452.955 C 289.971 444.872,299.952 441.033,308.400 444.334 M388.507 460.366 C 388.798 461.480,388.063 462.000,386.200 462.000 C 384.337 462.000,383.602 461.480,383.893 460.366 C 384.058 459.734,384.461 459.600,386.200 459.600 C 387.939 459.600,388.342 459.734,388.507 460.366 M392.727 460.931 C 392.817 461.696,392.672 462.000,392.214 462.000 C 391.457 462.000,391.016 461.057,391.357 460.167 C 391.719 459.225,392.582 459.706,392.727 460.931 M10.286 460.248 C 8.816 461.717,9.862 462.000,16.767 462.000 C 24.145 462.000,24.800 462.103,24.800 463.266 C 24.800 463.696,24.983 463.934,25.207 463.796 C 25.430 463.658,25.515 463.386,25.395 463.192 C 24.404 461.588,30.339 461.580,31.525 463.184 C 32.705 464.781,32.750 467.583,31.600 467.884 C 30.649 468.133,30.614 468.331,31.370 469.169 C 32.570 470.498,29.663 476.337,25.954 480.046 C 21.500 484.500,16.303 486.756,9.700 487.101 L 5.600 487.315 5.600 488.517 L 5.600 489.720 9.120 489.470 C 20.827 488.639,30.969 481.105,33.578 471.300 C 34.071 469.448,34.899 469.091,35.613 470.423 C 35.940 471.036,36.372 471.215,37.296 471.123 C 39.112 470.943,39.062 470.215,37.191 469.597 C 35.205 468.942,35.062 468.740,35.659 467.430 C 36.160 466.331,36.770 466.130,37.473 466.833 C 37.783 467.143,38.145 467.116,38.753 466.737 C 39.926 466.004,39.832 465.773,38.015 464.933 C 37.009 464.468,36.286 463.798,36.036 463.100 C 35.819 462.495,35.366 462.000,35.028 462.000 C 34.691 462.000,34.297 461.530,34.153 460.955 C 33.873 459.839,30.289 459.789,28.264 460.873 C 27.726 461.161,26.369 461.156,23.844 460.857 C 18.872 460.268,10.636 459.898,10.286 460.248 M47.143 470.035 C 46.690 470.315,47.288 470.840,49.128 471.775 C 50.210 472.324,50.368 472.556,49.983 473.021 C 49.448 473.665,48.933 473.587,44.279 472.158 C 40.600 471.028,40.800 471.051,40.800 471.771 C 40.800 472.816,47.559 475.593,50.115 475.598 L 51.231 475.600 51.115 483.900 C 51.052 488.465,50.855 492.492,50.677 492.848 C 50.473 493.258,50.569 493.712,50.939 494.081 C 51.399 494.541,51.570 496.438,51.741 502.979 C 51.860 507.551,52.032 511.365,52.122 511.455 C 52.332 511.666,52.786 494.292,52.855 483.400 C 52.922 472.788,52.896 472.834,57.708 474.635 C 58.538 474.946,59.692 475.200,60.273 475.200 C 60.854 475.200,62.246 475.454,63.365 475.765 C 66.964 476.765,68.951 477.241,71.200 477.644 C 74.420 478.220,74.212 476.315,74.088 504.106 L 73.977 529.213 63.088 529.106 L 52.200 529.000 52.000 527.204 C 51.618 523.774,50.338 524.503,50.482 528.067 L 50.600 531.000 62.600 531.200 C 69.558 531.316,75.159 531.242,75.929 531.024 L 77.259 530.648 76.339 529.954 C 75.424 529.264,75.423 529.253,76.112 527.330 C 76.942 525.015,76.965 523.738,76.200 522.400 C 75.272 520.776,75.335 489.172,76.270 487.590 C 76.868 486.577,76.883 486.160,76.410 483.654 C 75.982 481.386,75.978 480.620,76.386 479.633 C 77.269 477.503,77.161 477.430,71.000 476.005 C 69.900 475.750,68.100 475.352,67.000 475.120 C 65.900 474.888,64.321 474.451,63.492 474.149 C 62.662 473.847,61.378 473.600,60.638 473.600 C 59.897 473.600,58.776 473.331,58.146 473.002 C 57.516 472.674,56.437 472.404,55.749 472.402 C 54.020 472.399,51.706 471.365,51.422 470.469 C 51.187 469.728,48.140 469.420,47.143 470.035 M80.021 481.579 C 79.182 482.109,80.639 482.379,85.000 482.500 L 88.600 482.600 88.602 484.600 C 88.603 485.855,88.864 486.968,89.302 487.589 C 90.463 489.234,90.362 523.432,89.191 524.920 C 88.550 525.736,88.436 526.285,88.642 527.572 C 88.813 528.643,88.729 529.404,88.394 529.807 C 87.769 530.560,87.898 530.704,89.343 530.870 L 90.480 531.000 90.540 506.304 C 90.589 486.066,90.504 481.572,90.067 481.404 C 89.140 481.048,80.626 481.196,80.021 481.579 M87.862 487.700 C 87.320 489.149,87.283 489.487,87.610 490.015 C 88.021 490.681,88.567 488.868,88.297 487.732 C 88.135 487.047,88.107 487.045,87.862 487.700 M77.069 488.288 C 76.761 488.787,77.201 490.400,77.647 490.400 C 78.096 490.400,78.095 489.169,77.644 488.457 C 77.454 488.158,77.196 488.082,77.069 488.288 M86.276 492.547 C 86.103 493.178,86.060 493.793,86.181 493.914 C 86.598 494.331,86.860 493.669,86.725 492.537 L 86.590 491.400 86.276 492.547 M78.400 493.576 C 78.400 494.003,78.580 494.464,78.800 494.600 C 79.027 494.740,79.200 494.404,79.200 493.824 C 79.200 493.261,79.020 492.800,78.800 492.800 C 78.580 492.800,78.400 493.149,78.400 493.576 M7.600 506.180 C 7.600 515.821,7.538 516.795,6.903 517.150 C 6.520 517.365,6.342 517.675,6.506 517.840 C 6.819 518.152,30.840 518.093,31.154 517.779 C 31.253 517.681,28.873 517.600,25.867 517.600 L 20.400 517.600 20.400 506.600 L 20.400 495.600 14.000 495.600 L 7.600 495.600 7.600 506.180 M85.100 496.231 C 84.935 496.397,84.800 496.899,84.800 497.347 C 84.800 497.935,84.921 498.039,85.238 497.722 C 85.478 497.482,85.613 496.980,85.538 496.607 C 85.462 496.233,85.265 496.064,85.100 496.231 M19.107 506.712 L 19.214 516.823 13.907 516.712 L 8.600 516.600 8.493 507.008 C 8.359 495.115,7.724 496.353,13.892 496.488 L 19.000 496.600 19.107 506.712 M83.896 500.133 C 83.433 501.279,83.516 502.244,84.034 501.726 C 84.272 501.488,84.406 500.867,84.330 500.346 C 84.209 499.513,84.157 499.488,83.896 500.133 M81.103 501.431 C 80.983 501.550,81.121 502.544,81.410 503.639 C 81.769 504.998,81.819 506.037,81.568 506.912 C 81.365 507.618,81.200 508.644,81.200 509.193 L 81.200 510.192 82.200 509.113 C 83.619 507.583,83.653 503.730,82.260 502.227 C 81.743 501.669,81.222 501.311,81.103 501.431 M83.600 510.553 C 83.600 511.103,83.780 511.664,84.000 511.800 C 84.226 511.940,84.400 511.612,84.400 511.047 C 84.400 510.497,84.220 509.936,84.000 509.800 C 83.774 509.660,83.600 509.988,83.600 510.553 M51.300 512.265 C 50.999 512.386,50.800 513.218,50.800 514.353 C 50.800 516.858,50.361 517.200,47.144 517.200 C 45.661 517.200,44.336 517.380,44.200 517.600 C 44.041 517.857,45.396 518.000,47.976 518.000 L 52.000 518.000 52.000 515.633 C 52.000 514.331,52.109 512.981,52.243 512.633 C 52.487 511.996,52.223 511.893,51.300 512.265 M84.800 514.553 C 84.800 515.103,84.980 515.664,85.200 515.800 C 85.426 515.940,85.600 515.612,85.600 515.047 C 85.600 514.497,85.420 513.936,85.200 513.800 C 84.974 513.660,84.800 513.988,84.800 514.553 M46.500 515.476 C 46.885 515.576,47.515 515.576,47.900 515.476 C 48.285 515.375,47.970 515.293,47.200 515.293 C 46.430 515.293,46.115 515.375,46.500 515.476 M392.731 515.746 C 392.227 516.120,387.743 516.266,374.531 516.339 L 357.000 516.436 356.898 548.213 L 356.795 579.991 372.698 580.095 L 388.600 580.200 388.600 598.400 L 388.600 616.600 377.000 616.541 C 362.927 616.468,367.282 616.454,344.909 616.650 L 326.019 616.815 325.909 623.708 L 325.800 630.600 246.600 630.894 C 203.040 631.056,159.403 631.284,149.628 631.402 C 137.790 631.545,131.720 631.480,131.448 631.208 C 131.182 630.942,124.144 630.800,111.144 630.800 C 95.666 630.800,91.175 630.689,90.924 630.300 C 90.746 630.025,90.556 616.570,90.503 600.400 C 90.449 584.230,90.331 570.685,90.240 570.300 C 90.086 569.645,88.802 569.600,70.258 569.600 L 50.441 569.600 50.321 586.100 C 50.244 596.549,50.347 602.893,50.600 603.400 C 51.054 604.308,51.062 623.092,50.610 627.200 C 50.186 631.049,51.047 630.800,38.151 630.800 C 27.487 630.800,26.800 630.844,26.800 631.520 C 26.800 631.916,26.596 632.444,26.347 632.693 C 25.572 633.468,26.274 634.400,27.631 634.400 C 28.771 634.400,28.864 634.308,28.636 633.400 L 28.385 632.400 39.743 632.400 C 48.820 632.400,51.193 632.291,51.553 631.857 C 51.876 631.468,52.031 622.951,52.102 601.757 L 52.200 572.200 63.115 572.200 L 74.030 572.200 74.008 602.054 C 73.988 629.065,74.046 631.932,74.625 632.154 C 76.064 632.707,326.680 632.426,327.141 631.872 C 327.407 631.551,327.622 628.840,327.689 624.972 L 327.800 618.600 361.900 618.498 L 396.000 618.396 396.000 634.200 L 396.000 650.004 211.485 649.998 C 29.933 649.992,26.960 649.979,26.312 649.222 C 25.539 648.319,22.972 648.371,21.000 649.330 C 19.665 649.979,2.787 651.084,1.012 650.639 C 0.187 650.432,0.000 650.530,0.000 651.170 C -0.000 651.931,0.381 651.960,11.981 652.078 C 24.040 652.201,26.204 652.468,24.397 653.611 C 23.987 653.870,24.552 653.977,26.200 653.954 C 27.738 653.932,28.258 653.824,27.647 653.653 C 26.745 653.401,26.733 653.354,27.408 652.793 C 28.037 652.271,50.302 652.188,212.866 652.099 L 397.608 651.997 397.504 634.543 L 397.400 617.088 395.400 616.500 C 394.300 616.176,392.770 615.886,392.000 615.856 C 391.230 615.825,390.468 615.620,390.306 615.400 C 389.643 614.497,389.953 518.644,390.623 517.689 C 391.415 516.558,392.140 516.561,392.913 517.700 L 393.523 518.600 393.978 517.431 C 394.560 515.934,393.822 514.936,392.731 515.746 M78.667 516.267 C 78.252 516.682,78.353 518.000,78.800 518.000 C 79.020 518.000,79.200 517.550,79.200 517.000 C 79.200 515.953,79.108 515.826,78.667 516.267 M388.302 548.100 L 388.405 578.800 373.202 578.800 L 358.000 578.800 357.993 570.500 C 357.984 560.592,357.985 517.445,357.994 517.295 C 357.997 517.238,364.795 517.238,373.100 517.295 L 388.200 517.400 388.302 548.100 M86.000 518.776 C 86.000 519.203,86.180 519.664,86.400 519.800 C 86.627 519.940,86.800 519.604,86.800 519.024 C 86.800 518.461,86.620 518.000,86.400 518.000 C 86.180 518.000,86.000 518.349,86.000 518.776 M77.066 520.869 C 76.805 521.868,77.083 522.519,77.628 522.183 C 78.102 521.890,78.118 520.000,77.647 520.000 C 77.452 520.000,77.191 520.391,77.066 520.869 M87.600 523.153 C 87.600 523.813,87.780 524.464,88.000 524.600 C 88.233 524.744,88.400 524.345,88.400 523.647 C 88.400 522.987,88.220 522.336,88.000 522.200 C 87.767 522.056,87.600 522.455,87.600 523.153 M25.420 525.549 C 25.629 525.742,27.600 525.769,29.800 525.611 L 33.800 525.323 29.420 525.262 C 26.903 525.226,25.202 525.349,25.420 525.549 M261.600 586.600 L 261.600 603.200 294.200 603.200 L 326.800 603.200 326.800 586.600 L 326.800 570.000 294.200 570.000 L 261.600 570.000 261.600 586.600 M85.958 571.122 C 86.171 571.519,86.247 572.576,86.127 573.470 C 85.994 574.462,86.082 575.204,86.354 575.372 C 86.654 575.557,86.800 575.108,86.800 573.997 C 86.800 571.092,89.205 569.254,89.806 571.700 C 90.498 574.518,89.793 623.670,89.053 624.211 C 88.383 624.701,88.344 625.026,88.681 627.370 C 89.181 630.843,89.257 630.800,82.569 630.800 C 76.102 630.800,75.834 630.686,76.413 628.186 C 76.960 625.830,76.876 623.437,76.202 622.146 C 75.308 620.430,75.308 579.570,76.202 577.854 C 76.921 576.476,76.967 574.718,76.329 572.955 C 75.527 570.736,76.172 570.400,81.235 570.400 C 85.007 570.400,85.622 570.494,85.958 571.122 M172.275 570.658 C 172.124 570.809,172.000 578.193,172.000 587.067 L 172.000 603.200 202.804 603.200 L 233.609 603.200 233.504 586.900 L 233.400 570.600 202.975 570.491 C 186.242 570.431,172.427 570.506,172.275 570.658 M325.600 586.602 L 325.600 602.405 294.100 602.302 L 262.600 602.200 262.495 587.001 C 262.437 578.642,262.477 571.577,262.583 571.301 C 262.734 570.905,269.384 570.800,294.187 570.800 L 325.600 570.800 325.600 586.602 M232.200 587.000 L 232.200 602.200 202.800 602.200 L 173.400 602.200 173.295 586.897 L 173.190 571.595 202.695 571.697 L 232.200 571.800 232.200 587.000 M77.052 578.316 C 76.739 578.822,77.186 581.144,77.652 581.432 C 77.843 581.550,77.997 581.052,77.994 580.324 C 77.987 578.842,77.443 577.683,77.052 578.316 M84.800 580.424 C 84.800 581.404,84.958 581.949,85.200 581.800 C 85.420 581.664,85.600 580.933,85.600 580.176 C 85.600 579.419,85.420 578.800,85.200 578.800 C 84.980 578.800,84.800 579.531,84.800 580.424 M78.400 584.976 C 78.400 585.513,78.580 586.064,78.800 586.200 C 79.033 586.344,79.200 585.937,79.200 585.224 C 79.200 584.551,79.020 584.000,78.800 584.000 C 78.580 584.000,78.400 584.439,78.400 584.976 M83.900 585.428 C 83.735 585.596,83.605 586.378,83.612 587.167 C 83.622 588.347,83.697 588.475,84.038 587.890 C 84.496 587.102,84.375 584.945,83.900 585.428 M80.093 590.400 C 80.093 591.170,80.175 591.485,80.276 591.100 C 80.376 590.715,80.376 590.085,80.276 589.700 C 80.175 589.315,80.093 589.630,80.093 590.400 M81.817 592.532 C 80.318 595.027,80.694 603.033,82.295 602.725 C 82.912 602.606,82.990 601.980,83.007 597.065 C 83.027 591.006,82.938 590.665,81.817 592.532 M79.877 605.900 C 79.759 606.505,79.828 607.171,80.031 607.380 C 80.258 607.614,80.400 607.192,80.400 606.280 C 80.400 604.528,80.178 604.367,79.877 605.900 M83.600 605.953 C 83.600 606.613,83.780 607.264,84.000 607.400 C 84.233 607.544,84.400 607.145,84.400 606.447 C 84.400 605.787,84.220 605.136,84.000 605.000 C 83.767 604.856,83.600 605.255,83.600 605.953 M84.806 610.876 C 84.809 611.384,84.987 612.070,85.200 612.400 C 85.495 612.857,85.589 612.695,85.594 611.724 C 85.597 611.022,85.420 610.336,85.200 610.200 C 84.977 610.062,84.803 610.361,84.806 610.876 M78.700 611.428 C 78.535 611.596,78.400 612.369,78.400 613.147 C 78.400 614.153,78.524 614.436,78.829 614.131 C 79.065 613.895,79.200 613.122,79.129 612.413 C 79.058 611.704,78.865 611.261,78.700 611.428 M86.136 615.822 C 86.005 616.164,86.088 616.839,86.322 617.322 C 86.703 618.112,86.749 618.050,86.773 616.700 C 86.801 615.129,86.540 614.769,86.136 615.822 M77.553 617.400 C 77.036 618.234,76.784 620.743,77.191 620.994 C 77.419 621.135,77.706 620.988,77.829 620.667 C 78.126 619.895,77.871 616.886,77.553 617.400 M87.503 620.726 C 87.237 621.746,87.587 623.600,88.047 623.600 C 88.496 623.600,88.498 621.174,88.049 620.466 C 87.790 620.057,87.663 620.117,87.503 620.726 M43.400 623.600 C 42.691 623.905,42.725 623.947,43.700 623.972 C 44.305 623.987,44.800 623.820,44.800 623.600 C 44.800 623.131,44.493 623.131,43.400 623.600 M11.693 630.000 C 11.232 630.738,10.760 630.800,5.597 630.800 C 0.267 630.800,0.000 630.838,0.000 631.600 C 0.000 632.564,5.763 632.727,12.799 631.962 C 18.450 631.347,19.807 630.878,16.063 630.834 C 13.477 630.804,13.100 630.704,12.916 630.000 C 12.801 629.560,12.591 629.200,12.450 629.200 C 12.308 629.200,11.968 629.560,11.693 630.000 M22.800 629.953 C 22.800 630.415,24.319 630.806,25.039 630.530 C 26.084 630.129,25.607 629.600,24.200 629.600 C 23.430 629.600,22.800 629.759,22.800 629.953 M33.600 637.600 C 33.600 637.820,33.960 638.000,34.400 638.000 C 34.840 638.000,35.200 637.820,35.200 637.600 C 35.200 637.380,34.840 637.200,34.400 637.200 C 33.960 637.200,33.600 637.380,33.600 637.600 " stroke="none" fill="#474746" fill-rule="evenodd"></path><path id="path1" d="M0.000 219.800 L 0.000 439.600 1.000 439.600 C 1.550 439.600,2.000 439.780,2.000 440.000 C 2.000 440.220,1.550 440.400,1.000 440.400 L 0.000 440.400 0.000 535.600 L 0.000 630.800 5.597 630.800 C 10.760 630.800,11.232 630.738,11.693 630.000 C 12.325 628.988,12.651 628.988,12.916 630.000 C 13.100 630.704,13.477 630.804,16.063 630.834 C 18.243 630.860,18.720 630.953,17.914 631.196 C 16.014 631.769,8.919 632.400,4.384 632.400 L 0.000 632.400 0.000 641.392 L 0.000 650.385 1.012 650.639 C 2.787 651.084,19.665 649.979,21.000 649.330 C 22.972 648.371,25.539 648.319,26.312 649.222 C 26.960 649.979,29.933 649.992,211.485 649.998 L 396.000 650.004 396.000 634.200 L 396.000 618.396 361.900 618.498 L 327.800 618.600 327.689 624.972 C 327.622 628.840,327.407 631.551,327.141 631.872 C 326.680 632.426,76.064 632.707,74.625 632.154 C 74.046 631.932,73.988 629.065,74.008 602.054 L 74.030 572.200 63.115 572.200 L 52.200 572.200 52.102 601.757 C 52.031 622.951,51.876 631.468,51.553 631.857 C 51.193 632.291,48.820 632.400,39.743 632.400 L 28.385 632.400 28.636 633.400 C 28.864 634.308,28.771 634.400,27.631 634.400 C 26.274 634.400,25.572 633.468,26.347 632.693 C 26.596 632.444,26.800 631.916,26.800 631.520 C 26.800 630.844,27.487 630.800,38.151 630.800 C 51.047 630.800,50.186 631.049,50.610 627.200 C 51.062 623.092,51.054 604.308,50.600 603.400 C 50.347 602.893,50.244 596.549,50.321 586.100 L 50.441 569.600 70.258 569.600 C 88.802 569.600,90.086 569.645,90.240 570.300 C 90.331 570.685,90.449 584.230,90.503 600.400 C 90.556 616.570,90.746 630.025,90.924 630.300 C 91.175 630.689,95.666 630.800,111.144 630.800 C 124.144 630.800,131.182 630.942,131.448 631.208 C 131.720 631.480,137.790 631.545,149.628 631.402 C 159.403 631.284,203.040 631.056,246.600 630.894 L 325.800 630.600 325.909 623.708 L 326.019 616.815 344.909 616.650 C 367.282 616.454,362.927 616.468,377.000 616.541 L 388.600 616.600 388.600 598.400 L 388.600 580.200 372.698 580.095 L 356.795 579.991 356.898 548.215 L 357.000 516.439 374.400 516.364 C 388.026 516.305,391.987 516.173,392.663 515.759 C 393.918 514.990,394.590 515.860,393.970 517.451 L 393.523 518.600 392.913 517.700 C 392.140 516.561,391.415 516.558,390.623 517.689 C 389.953 518.644,389.643 614.497,390.306 615.400 C 390.468 615.620,391.230 615.825,392.000 615.856 C 392.770 615.886,394.300 616.176,395.400 616.500 L 397.400 617.088 397.504 634.543 L 397.608 651.997 212.866 652.099 C 50.302 652.188,28.037 652.271,27.408 652.793 C 26.733 653.354,26.745 653.401,27.647 653.653 C 28.171 653.800,112.165 653.938,214.300 653.960 L 400.000 654.000 400.000 327.000 L 400.000 0.000 399.000 0.000 L 398.000 0.000 397.994 26.500 C 397.988 53.604,397.922 54.777,396.480 53.473 C 395.865 52.916,395.496 52.859,394.630 53.189 C 393.875 53.476,393.302 53.469,392.737 53.166 C 391.596 52.556,390.140 53.025,389.853 54.096 C 389.536 55.279,389.526 143.741,389.843 144.567 C 390.120 145.291,392.016 145.424,392.674 144.766 C 392.986 144.454,393.466 144.517,394.383 144.991 C 396.236 145.949,396.800 145.313,396.800 142.265 C 396.800 139.979,396.842 139.870,397.475 140.504 C 398.641 141.670,398.388 151.600,397.192 151.600 C 396.977 151.600,396.800 151.255,396.800 150.833 C 396.800 149.082,395.342 148.000,394.600 149.200 C 394.149 149.930,393.703 149.615,393.459 148.393 C 393.148 146.842,391.395 146.034,390.431 146.998 C 389.765 147.663,389.191 204.925,389.801 209.901 C 390.110 212.427,391.072 213.238,392.584 212.247 C 393.352 211.744,393.738 211.721,394.790 212.119 C 395.901 212.538,396.133 212.506,396.601 211.867 C 397.875 210.123,398.000 212.315,398.000 236.494 C 398.000 260.878,397.931 261.988,396.503 260.560 C 396.051 260.109,395.786 260.080,395.358 260.435 C 394.457 261.183,394.537 291.524,395.440 291.871 C 396.364 292.225,396.787 291.297,396.794 288.900 C 396.800 286.644,397.391 286.106,397.892 287.900 C 398.264 289.230,398.240 296.188,397.858 297.710 C 397.501 299.135,396.800 299.113,396.800 297.676 C 396.800 295.902,395.841 294.802,395.253 295.902 C 393.775 298.663,394.908 309.405,396.535 308.054 C 397.167 307.529,398.000 308.198,398.000 309.231 C 398.000 310.098,397.056 310.890,396.570 310.430 C 395.809 309.709,335.845 309.423,335.252 310.138 C 334.870 310.598,334.762 311.882,334.862 314.787 C 335.003 318.895,334.676 320.143,334.256 317.100 C 333.904 314.554,333.834 309.633,334.145 309.322 C 334.295 309.172,340.579 309.088,348.109 309.136 C 364.082 309.238,375.535 308.745,376.049 307.934 C 376.720 306.876,376.451 304.039,375.631 303.527 C 374.873 303.053,374.873 303.033,375.631 302.069 C 376.679 300.737,376.755 294.656,375.738 293.531 C 375.122 292.851,375.122 292.749,375.738 292.069 C 376.724 290.979,376.752 260.621,375.767 260.243 C 375.419 260.109,373.168 260.000,370.764 260.000 L 366.394 260.000 366.497 236.500 L 366.600 213.000 371.241 212.800 C 374.217 212.672,376.108 212.412,376.512 212.075 C 377.036 211.639,377.347 211.656,378.351 212.175 C 379.725 212.885,387.365 213.063,388.400 212.408 C 389.314 211.831,389.450 148.272,388.541 146.866 C 388.000 146.030,388.003 145.860,388.569 145.235 C 389.490 144.217,389.540 53.980,388.619 53.216 C 388.201 52.869,386.601 52.794,382.919 52.948 C 376.800 53.203,377.786 53.210,371.400 52.874 L 366.200 52.600 366.000 37.600 C 365.890 29.350,365.654 22.375,365.476 22.100 C 364.914 21.231,350.080 21.403,349.101 22.290 C 348.379 22.943,348.275 22.943,347.137 22.290 C 346.005 21.640,338.640 21.606,220.868 21.695 C 152.080 21.748,103.046 21.840,111.902 21.900 L 128.005 22.009 127.902 53.905 L 127.800 85.800 111.300 85.904 L 94.800 86.009 94.800 95.507 C 94.800 100.731,94.629 105.601,94.420 106.330 C 94.176 107.183,94.182 108.026,94.438 108.700 C 95.305 110.979,94.927 135.651,94.011 136.566 L 93.200 137.378 93.200 79.317 C 93.200 27.069,93.263 21.194,93.829 20.629 C 94.920 19.538,366.602 19.682,367.186 20.774 C 367.449 21.266,367.600 26.787,367.600 35.950 C 367.600 45.892,367.735 50.436,368.035 50.622 C 368.630 50.989,394.932 51.013,395.525 50.646 C 395.884 50.425,396.000 44.177,396.000 25.176 L 396.000 0.000 382.086 0.000 L 368.172 0.000 367.464 1.200 L 366.755 2.400 231.203 2.400 C 91.722 2.400,93.740 2.423,93.315 0.795 C 93.113 0.025,92.747 0.000,81.750 0.000 L 70.393 0.000 70.497 70.710 L 70.600 141.420 71.500 142.564 C 72.582 143.939,72.798 147.200,71.808 147.200 C 71.482 147.200,71.077 147.695,70.908 148.300 C 70.380 150.186,70.527 274.687,71.057 275.217 C 71.997 276.157,92.798 275.952,93.027 275.000 C 93.329 273.748,92.920 150.112,92.605 147.245 C 92.430 145.660,92.485 144.370,92.749 143.845 C 92.984 143.380,93.226 142.405,93.288 141.679 C 93.393 140.440,93.449 140.394,94.187 140.937 C 94.935 141.488,94.969 141.959,94.867 150.193 C 94.788 156.525,94.890 159.026,95.243 159.451 C 95.609 159.893,95.614 160.146,95.263 160.497 C 94.959 160.801,94.800 162.782,94.800 166.274 L 94.800 171.589 107.700 171.694 L 120.600 171.800 120.600 185.800 L 120.600 199.800 107.696 199.906 L 94.792 200.011 94.730 221.506 C 94.696 233.327,94.677 244.080,94.687 245.400 C 94.807 260.360,94.707 266.166,94.316 267.025 C 93.987 267.747,93.992 268.265,94.336 269.019 C 94.819 270.080,94.980 275.865,94.557 276.967 C 94.343 277.526,92.803 277.600,81.357 277.600 L 68.400 277.600 68.398 272.700 C 68.397 270.005,68.208 267.123,67.978 266.296 C 67.661 265.153,67.685 264.614,68.080 264.050 C 68.503 263.446,68.563 252.611,68.400 205.954 C 68.290 174.409,68.290 146.530,68.400 144.000 C 68.510 141.470,68.510 123.740,68.400 104.600 L 68.200 69.800 67.300 69.405 C 66.280 68.958,66.096 67.692,67.000 67.345 C 67.482 67.160,67.600 66.267,67.600 62.806 C 67.600 59.465,67.465 58.386,67.000 58.000 C 66.322 57.437,66.193 56.400,66.800 56.400 C 68.630 56.400,68.607 56.801,68.495 27.500 L 68.389 0.000 34.195 0.000 L 0.000 0.000 0.000 219.800 M162.932 0.300 C 200.075 0.356,260.735 0.356,297.732 0.300 C 334.730 0.244,304.340 0.198,230.200 0.198 C 156.060 0.198,125.790 0.244,162.932 0.300 M96.000 54.000 L 96.000 84.800 111.400 84.800 L 126.800 84.800 126.800 54.000 L 126.800 23.200 111.400 23.200 L 96.000 23.200 96.000 54.000 M260.400 167.403 L 260.400 299.206 236.700 299.103 L 213.000 299.000 212.899 167.300 L 212.799 35.600 236.599 35.600 L 260.400 35.600 260.400 167.403 M214.000 167.400 L 214.000 298.007 236.700 297.903 L 259.400 297.800 259.400 167.400 L 259.400 37.000 236.700 36.897 L 214.000 36.793 214.000 167.400 M156.800 135.200 L 156.800 157.200 145.400 157.200 L 134.000 157.200 134.000 135.200 L 134.000 113.200 145.400 113.200 L 156.800 113.200 156.800 135.200 M135.067 114.667 C 134.920 114.813,134.800 124.173,134.800 135.467 L 134.800 156.000 145.400 156.000 L 156.000 156.000 156.000 135.200 L 156.000 114.400 145.667 114.400 C 139.983 114.400,135.213 114.520,135.067 114.667 M349.133 145.752 C 349.355 146.899,348.471 147.651,347.566 147.086 C 346.611 146.490,346.586 145.764,347.500 145.233 C 348.400 144.709,348.966 144.889,349.133 145.752 M377.944 148.769 C 377.994 152.368,377.604 153.502,376.820 152.037 C 376.293 151.052,376.280 149.372,376.792 148.416 C 377.076 147.884,377.021 147.550,376.592 147.193 C 375.783 146.522,375.846 145.294,376.700 145.100 C 377.834 144.842,377.892 145.014,377.944 148.769 M76.000 155.280 C 76.000 155.926,75.882 156.042,75.555 155.715 C 75.310 155.470,75.231 155.074,75.378 154.835 C 75.792 154.165,76.000 154.314,76.000 155.280 M96.000 185.800 L 96.000 198.800 107.800 198.800 L 119.600 198.800 119.600 185.800 L 119.600 172.800 107.800 172.800 L 96.000 172.800 96.000 185.800 M94.493 176.400 C 94.493 177.170,94.575 177.485,94.676 177.100 C 94.776 176.715,94.776 176.085,94.676 175.700 C 94.575 175.315,94.493 175.630,94.493 176.400 M367.783 215.300 C 367.678 215.575,367.639 225.070,367.696 236.400 L 367.800 257.000 381.800 257.000 L 395.800 257.000 395.904 235.900 L 396.007 214.800 381.991 214.800 C 371.147 214.800,367.932 214.913,367.783 215.300 M157.600 240.000 L 157.600 262.800 145.400 262.800 L 133.200 262.800 133.200 240.000 L 133.200 217.200 145.400 217.200 L 157.600 217.200 157.600 240.000 M134.400 239.794 L 134.400 261.600 145.403 261.600 L 156.407 261.600 156.303 239.900 L 156.200 218.200 145.300 218.094 L 134.400 217.987 134.400 239.794 M344.425 220.233 C 355.786 222.817,360.809 236.022,354.117 245.714 C 346.980 256.051,329.402 254.475,324.161 243.028 C 318.256 230.130,329.976 216.947,344.425 220.233 M335.172 221.325 C 321.224 225.255,319.702 243.733,332.800 250.122 C 336.328 251.843,343.028 252.013,346.000 250.458 C 346.990 249.940,348.457 249.179,349.260 248.768 C 353.657 246.516,356.716 239.908,356.008 234.195 C 354.875 225.058,344.551 218.681,335.172 221.325 M348.794 271.724 C 348.788 286.458,348.603 288.822,347.640 286.497 C 347.087 285.161,347.168 257.759,347.728 256.893 C 348.636 255.489,348.800 257.760,348.794 271.724 M378.483 260.501 C 377.824 261.294,377.715 301.374,378.369 302.163 C 378.725 302.591,378.741 302.964,378.428 303.548 C 377.725 304.861,377.914 307.114,378.800 308.000 C 379.699 308.899,385.763 309.174,387.779 308.408 L 388.809 308.016 388.779 300.919 C 388.761 296.555,388.586 293.624,388.326 293.311 C 388.026 292.949,388.035 292.640,388.356 292.253 C 388.681 291.861,388.780 287.249,388.705 275.953 L 388.600 260.200 383.759 260.088 C 380.143 260.005,378.807 260.109,378.483 260.501 M390.700 260.432 C 389.991 260.845,389.566 289.604,390.243 291.367 C 390.552 292.174,391.367 292.176,392.171 291.371 C 393.128 290.415,393.124 260.610,392.167 260.243 C 391.411 259.953,391.555 259.934,390.700 260.432 M348.999 292.396 C 349.490 293.944,348.388 294.491,346.976 293.400 C 346.208 292.806,346.208 292.794,346.976 292.200 C 348.034 291.382,348.697 291.447,348.999 292.396 M390.700 293.632 C 389.895 294.101,389.641 305.403,390.390 307.374 C 390.828 308.525,392.173 308.769,392.557 307.767 C 393.158 306.201,392.818 293.692,392.167 293.443 C 391.411 293.153,391.555 293.134,390.700 293.632 M349.195 302.194 C 349.608 302.692,351.687 302.807,361.944 302.900 L 374.200 303.012 361.100 303.106 C 348.235 303.198,348.000 303.186,348.000 302.400 C 348.000 301.453,348.508 301.366,349.195 302.194 M335.994 321.700 C 335.989 322.686,335.894 322.855,335.600 322.400 C 335.092 321.614,335.092 320.400,335.600 320.400 C 335.820 320.400,335.997 320.985,335.994 321.700 M397.089 324.100 C 397.001 324.815,396.928 324.230,396.928 322.800 C 396.928 321.370,397.001 320.785,397.089 321.500 C 397.178 322.215,397.178 323.385,397.089 324.100 M94.494 321.800 C 94.656 322.020,94.791 344.456,94.794 371.657 C 94.799 416.383,94.861 421.138,95.433 421.357 C 95.781 421.491,115.799 421.600,139.917 421.600 L 183.769 421.600 182.200 422.400 C 180.275 423.381,94.651 423.691,93.680 422.720 C 93.312 422.352,93.200 410.764,93.200 373.000 C 93.200 335.236,93.088 323.648,92.720 323.280 C 92.097 322.657,72.328 322.596,71.174 323.214 C 70.721 323.456,70.400 324.049,70.400 324.643 C 70.400 325.201,70.130 325.927,69.800 326.257 C 69.012 327.045,69.017 330.434,69.812 333.918 C 70.149 335.393,70.613 337.448,70.845 338.485 C 71.077 339.521,71.116 340.601,70.933 340.885 C 70.750 341.168,70.493 355.170,70.361 372.000 C 70.133 401.242,70.018 404.028,68.897 407.400 C 68.677 408.060,68.099 410.400,67.612 412.600 C 67.125 414.800,66.570 416.960,66.379 417.400 C 66.187 417.840,65.850 419.236,65.629 420.501 C 65.407 421.767,65.061 423.117,64.859 423.501 C 64.657 423.886,64.365 425.308,64.211 426.662 C 63.877 429.592,62.974 429.071,71.600 430.927 C 72.810 431.187,73.997 431.528,74.237 431.685 C 74.477 431.841,75.647 432.145,76.837 432.360 C 82.062 433.303,86.800 434.748,86.800 435.397 C 86.800 436.355,86.031 436.489,84.083 435.869 C 81.710 435.114,79.164 434.453,76.600 433.926 C 75.500 433.700,74.281 433.350,73.891 433.149 C 73.501 432.947,72.331 432.671,71.291 432.535 C 70.251 432.399,68.914 432.043,68.320 431.744 C 67.726 431.445,66.757 431.200,66.166 431.200 C 62.809 431.200,61.295 429.887,62.192 427.753 C 62.461 427.115,62.809 425.733,62.967 424.681 C 63.125 423.630,63.512 422.152,63.827 421.398 C 64.142 420.643,64.400 419.424,64.400 418.689 C 64.400 417.954,64.664 417.004,64.987 416.576 C 65.310 416.149,65.587 415.080,65.601 414.200 C 65.616 413.320,65.886 412.150,66.200 411.600 C 66.514 411.050,66.779 409.970,66.788 409.200 C 66.797 408.430,67.119 407.260,67.502 406.600 C 68.558 404.785,68.812 345.193,67.776 342.481 C 67.154 340.852,67.154 340.597,67.787 338.585 C 68.305 336.939,68.480 334.731,68.532 329.202 C 68.579 324.234,68.745 321.881,69.062 321.685 C 69.800 321.229,94.155 321.339,94.494 321.800 M337.498 326.912 C 337.352 327.749,337.316 327.735,336.869 326.666 C 336.608 326.043,336.510 325.345,336.652 325.115 C 337.037 324.492,337.681 325.861,337.498 326.912 M340.000 331.447 C 340.000 331.777,339.820 331.936,339.600 331.800 C 339.380 331.664,339.200 331.283,339.200 330.953 C 339.200 330.623,339.380 330.464,339.600 330.600 C 339.820 330.736,340.000 331.117,340.000 331.447 M342.384 335.800 C 342.394 336.488,342.258 336.432,341.412 335.400 C 340.871 334.740,340.423 333.840,340.416 333.400 C 340.406 332.712,340.542 332.768,341.388 333.800 C 341.929 334.460,342.377 335.360,342.384 335.800 M397.083 338.495 C 396.987 338.993,396.905 338.680,396.901 337.800 C 396.896 336.920,396.975 336.513,397.075 336.895 C 397.175 337.278,397.179 337.998,397.083 338.495 M347.600 342.852 C 347.600 343.120,347.150 342.917,346.600 342.400 C 346.050 341.883,345.600 341.179,345.600 340.834 C 345.600 340.387,345.885 340.516,346.600 341.287 C 347.150 341.880,347.600 342.584,347.600 342.852 M353.821 348.184 C 354.450 348.725,354.856 349.278,354.721 349.412 C 354.586 349.547,353.874 349.109,353.138 348.440 C 351.548 346.994,352.166 346.762,353.821 348.184 M361.160 352.952 C 361.412 353.255,362.199 353.645,362.909 353.818 L 364.200 354.132 363.043 354.298 C 362.407 354.389,361.777 354.294,361.643 354.086 C 361.510 353.878,360.995 353.581,360.500 353.427 C 360.005 353.272,359.600 352.978,359.600 352.773 C 359.600 352.208,360.641 352.327,361.160 352.952 M366.800 355.200 C 367.268 355.502,367.157 355.589,366.300 355.594 C 365.695 355.597,365.200 355.420,365.200 355.200 C 365.200 354.694,366.017 354.694,366.800 355.200 M371.324 356.395 C 371.722 356.398,371.936 356.580,371.800 356.800 C 371.498 357.289,368.930 357.334,368.634 356.856 C 368.293 356.303,368.912 355.936,369.790 356.171 C 370.235 356.291,370.926 356.392,371.324 356.395 M398.000 357.875 C 398.000 359.357,397.187 360.112,396.378 359.380 C 395.663 358.733,395.562 358.733,394.576 359.379 C 393.624 360.003,393.471 360.007,392.835 359.431 C 390.073 356.932,390.000 357.602,390.000 385.502 L 390.000 410.426 390.900 410.762 C 391.395 410.947,392.160 410.970,392.600 410.814 C 393.040 410.658,394.165 410.610,395.100 410.707 C 396.330 410.835,396.800 410.738,396.800 410.356 C 396.800 409.950,396.915 409.964,397.300 410.414 C 397.691 410.872,397.775 416.264,397.685 435.100 L 397.570 459.200 396.429 459.200 C 394.488 459.200,393.386 460.411,393.924 461.954 C 394.597 463.884,394.637 512.633,393.966 513.441 C 393.625 513.852,393.346 513.906,393.057 513.617 C 392.828 513.388,392.065 513.200,391.363 513.200 C 389.875 513.200,389.548 512.629,389.876 510.607 L 390.110 509.169 390.881 510.438 C 391.360 511.225,391.795 511.565,392.027 511.333 C 392.442 510.918,392.581 464.217,392.170 463.551 C 390.636 461.070,389.673 470.231,391.043 474.266 C 391.486 475.572,391.601 476.725,391.411 477.980 C 391.260 478.981,391.154 480.462,391.176 481.272 C 391.198 482.081,391.032 482.857,390.808 482.995 C 390.191 483.376,390.320 487.433,391.000 489.062 C 391.747 490.850,391.744 491.976,390.987 492.976 C 390.664 493.404,390.394 494.394,390.386 495.176 L 390.372 496.600 389.821 495.606 C 389.436 494.910,389.256 492.943,389.222 489.055 C 389.195 485.998,389.002 483.178,388.793 482.787 C 388.373 482.002,388.571 478.683,389.185 476.200 C 389.683 474.188,389.709 469.840,389.234 468.000 C 389.036 467.230,388.759 465.925,388.618 465.100 C 388.340 463.459,385.523 462.892,383.604 464.090 C 382.954 464.497,382.733 464.463,382.310 463.890 C 381.837 463.250,379.788 463.193,354.000 463.100 C 329.600 463.012,326.200 462.927,326.200 462.400 C 326.200 462.044,326.444 461.881,326.800 462.000 C 327.130 462.110,339.730 462.200,354.800 462.200 L 382.200 462.200 382.200 460.800 L 382.200 459.400 355.079 459.297 C 340.162 459.241,327.652 459.351,327.279 459.543 C 325.855 460.274,325.798 459.777,325.927 447.762 C 326.073 434.225,326.198 434.747,322.620 434.004 C 321.164 433.702,320.199 433.696,319.439 433.985 C 317.780 434.616,267.914 434.554,267.280 433.920 C 266.712 433.352,266.592 422.176,267.150 421.831 C 267.342 421.712,289.469 421.601,316.320 421.584 C 354.910 421.560,365.228 421.448,365.557 421.052 C 365.785 420.777,366.024 418.492,366.086 415.976 L 366.200 411.400 369.600 411.200 C 371.470 411.090,373.225 410.854,373.500 410.676 C 374.212 410.216,374.231 364.791,373.520 364.080 C 372.886 363.446,349.378 363.388,348.988 364.019 C 348.811 364.307,348.552 364.292,348.169 363.974 C 346.939 362.953,348.526 362.800,360.347 362.800 C 375.038 362.800,374.954 362.830,373.568 358.018 C 373.423 357.516,374.954 357.453,384.646 357.559 C 394.249 357.665,395.972 357.595,396.446 357.082 C 397.068 356.406,398.000 356.882,398.000 357.875 M375.962 359.674 C 375.422 360.678,375.522 361.651,376.246 362.451 C 376.841 363.108,376.841 363.216,376.246 363.811 C 375.404 364.653,375.244 409.884,376.080 410.720 C 376.585 411.225,386.939 411.429,388.167 410.957 C 388.846 410.697,389.164 360.387,388.494 359.341 C 387.973 358.529,376.412 358.835,375.962 359.674 M176.400 382.400 L 176.400 394.800 153.200 394.800 L 130.000 394.800 130.000 382.400 L 130.000 370.000 153.200 370.000 L 176.400 370.000 176.400 382.400 M131.200 382.200 L 131.200 393.600 153.200 393.600 L 175.200 393.600 175.200 382.200 L 175.200 370.800 153.200 370.800 L 131.200 370.800 131.200 382.200 M348.764 380.900 C 348.730 388.696,348.706 388.925,348.140 387.000 C 346.896 382.769,346.951 372.800,348.218 372.800 C 348.709 372.800,348.794 374.062,348.764 380.900 M348.623 403.083 C 348.311 403.897,347.703 403.380,347.411 402.052 C 347.256 401.345,347.434 400.246,347.881 399.157 L 348.600 397.400 348.721 399.958 C 348.787 401.365,348.743 402.771,348.623 403.083 M368.085 413.675 C 367.772 413.988,367.600 415.525,367.600 418.004 C 367.600 420.451,367.418 422.093,367.100 422.524 C 366.636 423.153,363.117 423.209,317.800 423.301 L 269.000 423.400 269.000 428.000 L 269.000 432.600 297.666 432.622 C 320.755 432.641,326.455 432.747,326.966 433.171 C 327.517 433.629,327.600 435.171,327.600 445.016 C 327.600 451.241,327.709 456.619,327.843 456.967 C 328.062 457.537,331.448 457.600,362.046 457.600 L 396.007 457.600 395.903 435.500 L 395.800 413.400 382.185 413.295 C 371.930 413.216,368.451 413.309,368.085 413.675 M221.111 427.769 C 221.230 434.143,221.112 434.594,219.434 434.173 L 218.353 433.901 219.177 433.025 C 220.080 432.063,220.414 424.475,219.609 423.200 C 219.213 422.574,202.069 421.820,198.750 422.284 C 197.896 422.403,197.186 422.302,197.023 422.037 C 196.820 421.708,199.984 421.616,208.873 421.694 L 221.000 421.800 221.111 427.769 M190.139 432.949 C 191.004 433.310,192.126 433.475,192.802 433.340 C 194.114 433.077,196.246 433.488,195.814 433.919 C 195.238 434.495,156.031 434.247,155.911 433.667 C 155.799 433.127,134.970 432.862,133.574 433.382 C 133.258 433.500,123.730 433.667,112.400 433.754 C 101.070 433.841,90.848 433.938,89.685 433.970 C 87.242 434.037,86.373 433.701,87.280 433.039 C 88.361 432.250,188.258 432.163,190.139 432.949 M214.915 433.894 C 213.768 433.975,211.788 433.976,210.515 433.896 C 209.242 433.816,210.180 433.751,212.600 433.750 C 215.020 433.749,216.062 433.814,214.915 433.894 M199.200 447.207 L 199.200 456.414 188.900 456.307 L 178.600 456.200 178.492 447.100 L 178.385 438.000 188.792 438.000 L 199.200 438.000 199.200 447.207 M179.867 439.067 C 179.720 439.213,179.600 442.903,179.600 447.267 L 179.600 455.200 188.800 455.200 L 198.000 455.200 198.000 447.000 L 198.000 438.800 189.067 438.800 C 184.153 438.800,180.013 438.920,179.867 439.067 M5.539 440.229 C 6.300 440.609,6.800 441.164,6.800 441.629 C 6.800 442.753,5.730 442.573,5.436 441.400 C 5.227 440.569,4.946 440.400,3.769 440.400 C 2.927 440.400,2.453 440.238,2.600 440.000 C 2.958 439.420,4.094 439.509,5.539 440.229 M308.517 443.327 C 321.293 447.964,324.759 464.144,315.048 473.816 C 301.576 487.236,278.842 474.152,283.744 455.800 C 286.504 445.465,298.194 439.580,308.517 443.327 M296.231 444.019 C 279.190 450.041,280.679 474.244,298.320 477.954 C 313.951 481.242,325.717 462.875,316.093 450.210 C 311.591 444.285,303.031 441.616,296.231 444.019 M383.893 460.366 C 383.602 461.480,384.337 462.000,386.200 462.000 C 388.063 462.000,388.798 461.480,388.507 460.366 C 388.342 459.734,387.939 459.600,386.200 459.600 C 384.461 459.600,384.058 459.734,383.893 460.366 M391.357 460.167 C 391.016 461.057,391.457 462.000,392.214 462.000 C 392.672 462.000,392.817 461.696,392.727 460.931 C 392.582 459.706,391.719 459.225,391.357 460.167 M23.844 460.857 C 26.369 461.156,27.726 461.161,28.264 460.873 C 30.289 459.789,33.873 459.839,34.153 460.955 C 34.297 461.530,34.691 462.000,35.028 462.000 C 35.366 462.000,35.819 462.495,36.036 463.100 C 36.286 463.798,37.009 464.468,38.015 464.933 C 39.832 465.773,39.926 466.004,38.753 466.737 C 38.145 467.116,37.783 467.143,37.473 466.833 C 36.770 466.130,36.160 466.331,35.659 467.430 C 35.062 468.740,35.205 468.942,37.191 469.597 C 39.062 470.215,39.112 470.943,37.296 471.123 C 36.372 471.215,35.940 471.036,35.613 470.423 C 34.899 469.091,34.071 469.448,33.578 471.300 C 30.969 481.105,20.827 488.639,9.120 489.470 L 5.600 489.720 5.600 488.517 L 5.600 487.315 9.700 487.101 C 16.303 486.756,21.500 484.500,25.954 480.046 C 29.663 476.337,32.570 470.498,31.370 469.169 C 30.614 468.331,30.649 468.133,31.600 467.884 C 32.750 467.583,32.705 464.781,31.525 463.184 C 30.339 461.580,24.404 461.588,25.395 463.192 C 25.515 463.386,25.430 463.658,25.207 463.796 C 24.983 463.934,24.800 463.696,24.800 463.266 C 24.800 462.103,24.145 462.000,16.767 462.000 C 9.862 462.000,8.816 461.717,10.286 460.248 C 10.636 459.898,18.872 460.268,23.844 460.857 M51.422 470.469 C 51.706 471.365,54.020 472.399,55.749 472.402 C 56.437 472.404,57.516 472.674,58.146 473.002 C 58.776 473.331,59.897 473.600,60.638 473.600 C 61.378 473.600,62.662 473.847,63.492 474.149 C 64.321 474.451,65.900 474.888,67.000 475.120 C 77.024 477.235,77.321 477.378,76.386 479.633 C 75.978 480.620,75.982 481.386,76.410 483.654 C 76.883 486.160,76.868 486.577,76.270 487.590 C 75.335 489.172,75.272 520.776,76.200 522.400 C 76.965 523.738,76.942 525.015,76.112 527.330 C 75.423 529.253,75.424 529.264,76.339 529.954 L 77.259 530.648 75.929 531.024 C 75.159 531.242,69.558 531.316,62.600 531.200 L 50.600 531.000 50.482 528.067 C 50.338 524.503,51.618 523.774,52.000 527.204 L 52.200 529.000 63.088 529.106 L 73.977 529.213 74.088 504.106 C 74.212 476.315,74.420 478.220,71.200 477.644 C 68.951 477.241,66.964 476.765,63.365 475.765 C 62.246 475.454,60.854 475.200,60.273 475.200 C 59.692 475.200,58.538 474.946,57.708 474.635 C 52.896 472.834,52.922 472.788,52.855 483.400 C 52.786 494.292,52.332 511.666,52.122 511.455 C 52.032 511.365,51.860 507.551,51.741 502.979 C 51.570 496.438,51.399 494.541,50.939 494.081 C 50.569 493.712,50.473 493.258,50.677 492.848 C 50.855 492.492,51.052 488.465,51.115 483.900 L 51.231 475.600 50.115 475.598 C 47.559 475.593,40.800 472.816,40.800 471.771 C 40.800 471.051,40.600 471.028,44.279 472.158 C 48.933 473.587,49.448 473.665,49.983 473.021 C 50.368 472.556,50.210 472.324,49.128 471.775 C 46.249 470.312,46.304 469.825,49.355 469.762 C 50.809 469.731,51.234 469.877,51.422 470.469 M90.067 481.404 C 90.504 481.572,90.589 486.066,90.540 506.304 L 90.480 531.000 89.343 530.870 C 87.898 530.704,87.769 530.560,88.394 529.807 C 88.729 529.404,88.813 528.643,88.642 527.572 C 88.436 526.285,88.550 525.736,89.191 524.920 C 90.362 523.432,90.463 489.234,89.302 487.589 C 88.864 486.968,88.603 485.855,88.602 484.600 L 88.600 482.600 85.000 482.500 C 80.639 482.379,79.182 482.109,80.021 481.579 C 80.626 481.196,89.140 481.048,90.067 481.404 M88.208 489.511 C 88.014 490.284,87.857 490.416,87.610 490.015 C 87.283 489.487,87.320 489.149,87.862 487.700 C 88.262 486.630,88.551 488.143,88.208 489.511 M77.994 489.700 C 77.997 490.085,77.841 490.400,77.647 490.400 C 77.201 490.400,76.761 488.787,77.069 488.288 C 77.361 487.816,77.986 488.771,77.994 489.700 M86.630 493.903 C 86.159 494.375,85.971 493.657,86.276 492.547 L 86.590 491.400 86.725 492.537 C 86.799 493.162,86.757 493.777,86.630 493.903 M79.200 493.824 C 79.200 494.404,79.027 494.740,78.800 494.600 C 78.580 494.464,78.400 494.003,78.400 493.576 C 78.400 493.149,78.580 492.800,78.800 492.800 C 79.020 492.800,79.200 493.261,79.200 493.824 M20.400 506.600 L 20.400 517.600 25.867 517.600 C 28.873 517.600,31.253 517.681,31.154 517.779 C 30.840 518.093,6.819 518.152,6.506 517.840 C 6.342 517.675,6.520 517.365,6.903 517.150 C 7.538 516.795,7.600 515.821,7.600 506.180 L 7.600 495.600 14.000 495.600 L 20.400 495.600 20.400 506.600 M85.238 497.722 C 84.921 498.039,84.800 497.935,84.800 497.347 C 84.800 496.289,85.359 495.728,85.538 496.607 C 85.613 496.980,85.478 497.482,85.238 497.722 M8.585 496.896 C 8.475 497.182,8.433 501.732,8.493 507.008 L 8.600 516.600 13.907 516.712 L 19.214 516.823 19.107 506.712 L 19.000 496.600 13.892 496.488 C 9.988 496.402,8.737 496.499,8.585 496.896 M84.034 501.726 C 83.516 502.244,83.433 501.279,83.896 500.133 C 84.157 499.488,84.209 499.513,84.330 500.346 C 84.406 500.867,84.272 501.488,84.034 501.726 M83.200 505.638 C 83.200 507.640,83.035 508.212,82.200 509.113 L 81.200 510.192 81.200 509.193 C 81.200 508.644,81.365 507.618,81.568 506.912 C 81.819 506.037,81.769 504.998,81.410 503.639 C 80.779 501.246,81.004 500.872,82.260 502.227 C 83.029 503.057,83.200 503.677,83.200 505.638 M84.400 511.047 C 84.400 511.612,84.226 511.940,84.000 511.800 C 83.780 511.664,83.600 511.103,83.600 510.553 C 83.600 509.988,83.774 509.660,84.000 509.800 C 84.220 509.936,84.400 510.497,84.400 511.047 M52.243 512.633 C 52.109 512.981,52.000 514.331,52.000 515.633 L 52.000 518.000 47.976 518.000 C 45.396 518.000,44.041 517.857,44.200 517.600 C 44.336 517.380,45.661 517.200,47.144 517.200 C 50.361 517.200,50.800 516.858,50.800 514.353 C 50.800 512.610,51.078 512.130,52.143 512.032 C 52.331 512.014,52.376 512.285,52.243 512.633 M85.600 515.047 C 85.600 515.612,85.426 515.940,85.200 515.800 C 84.980 515.664,84.800 515.103,84.800 514.553 C 84.800 513.988,84.974 513.660,85.200 513.800 C 85.420 513.936,85.600 514.497,85.600 515.047 M47.900 515.476 C 47.515 515.576,46.885 515.576,46.500 515.476 C 46.115 515.375,46.430 515.293,47.200 515.293 C 47.970 515.293,48.285 515.375,47.900 515.476 M79.200 517.000 C 79.200 517.550,79.020 518.000,78.800 518.000 C 78.353 518.000,78.252 516.682,78.667 516.267 C 79.108 515.826,79.200 515.953,79.200 517.000 M357.994 517.295 C 357.985 517.445,357.984 560.592,357.993 570.500 L 358.000 578.800 373.202 578.800 L 388.405 578.800 388.302 548.100 L 388.200 517.400 373.100 517.295 C 364.795 517.238,357.997 517.238,357.994 517.295 M86.800 519.024 C 86.800 519.604,86.627 519.940,86.400 519.800 C 86.180 519.664,86.000 519.203,86.000 518.776 C 86.000 518.349,86.180 518.000,86.400 518.000 C 86.620 518.000,86.800 518.461,86.800 519.024 M78.000 520.976 C 78.000 521.988,77.412 522.666,77.047 522.076 C 76.755 521.604,77.219 520.000,77.647 520.000 C 77.841 520.000,78.000 520.439,78.000 520.976 M88.400 523.647 C 88.400 524.345,88.233 524.744,88.000 524.600 C 87.780 524.464,87.600 523.813,87.600 523.153 C 87.600 522.455,87.767 522.056,88.000 522.200 C 88.220 522.336,88.400 522.987,88.400 523.647 M29.800 525.611 C 27.600 525.769,25.629 525.742,25.420 525.549 C 25.202 525.349,26.903 525.226,29.420 525.262 L 33.800 525.323 29.800 525.611 M326.800 586.600 L 326.800 603.200 294.200 603.200 L 261.600 603.200 261.600 586.600 L 261.600 570.000 294.200 570.000 L 326.800 570.000 326.800 586.600 M76.378 571.026 C 75.967 571.522,75.957 571.925,76.329 572.955 C 76.967 574.718,76.921 576.476,76.202 577.854 C 75.308 579.570,75.308 620.430,76.202 622.146 C 76.876 623.437,76.960 625.830,76.413 628.186 C 75.834 630.686,76.102 630.800,82.569 630.800 C 89.257 630.800,89.181 630.843,88.681 627.370 C 88.344 625.026,88.383 624.701,89.053 624.211 C 89.793 623.670,90.498 574.518,89.806 571.700 C 89.205 569.254,86.800 571.092,86.800 573.997 C 86.800 575.108,86.654 575.557,86.354 575.372 C 86.082 575.204,85.994 574.462,86.127 573.470 C 86.511 570.607,86.181 570.400,81.235 570.400 C 77.787 570.400,76.791 570.528,76.378 571.026 M233.504 586.900 L 233.609 603.200 202.804 603.200 L 172.000 603.200 172.000 587.067 C 172.000 578.193,172.124 570.809,172.275 570.658 C 172.427 570.506,186.242 570.431,202.975 570.491 L 233.400 570.600 233.504 586.900 M262.583 571.301 C 262.477 571.577,262.437 578.642,262.495 587.001 L 262.600 602.200 294.100 602.302 L 325.600 602.405 325.600 586.602 L 325.600 570.800 294.187 570.800 C 269.384 570.800,262.734 570.905,262.583 571.301 M173.295 586.897 L 173.400 602.200 202.800 602.200 L 232.200 602.200 232.200 587.000 L 232.200 571.800 202.695 571.697 L 173.190 571.595 173.295 586.897 M77.994 580.324 C 77.997 581.052,77.843 581.550,77.652 581.432 C 77.186 581.144,76.739 578.822,77.052 578.316 C 77.443 577.683,77.987 578.842,77.994 580.324 M85.600 580.176 C 85.600 580.933,85.420 581.664,85.200 581.800 C 84.958 581.949,84.800 581.404,84.800 580.424 C 84.800 579.531,84.980 578.800,85.200 578.800 C 85.420 578.800,85.600 579.419,85.600 580.176 M79.200 585.224 C 79.200 585.937,79.033 586.344,78.800 586.200 C 78.580 586.064,78.400 585.513,78.400 584.976 C 78.400 584.439,78.580 584.000,78.800 584.000 C 79.020 584.000,79.200 584.551,79.200 585.224 M84.038 587.890 C 83.697 588.475,83.622 588.347,83.612 587.167 C 83.605 586.378,83.735 585.596,83.900 585.428 C 84.375 584.945,84.496 587.102,84.038 587.890 M80.276 591.100 C 80.175 591.485,80.093 591.170,80.093 590.400 C 80.093 589.630,80.175 589.315,80.276 589.700 C 80.376 590.085,80.376 590.715,80.276 591.100 M83.007 597.065 C 82.990 601.980,82.912 602.606,82.295 602.725 C 80.694 603.033,80.318 595.027,81.817 592.532 C 82.938 590.665,83.027 591.006,83.007 597.065 M80.400 606.280 C 80.400 607.192,80.258 607.614,80.031 607.380 C 79.696 607.035,79.883 604.800,80.247 604.800 C 80.331 604.800,80.400 605.466,80.400 606.280 M84.400 606.447 C 84.400 607.145,84.233 607.544,84.000 607.400 C 83.780 607.264,83.600 606.613,83.600 605.953 C 83.600 605.255,83.767 604.856,84.000 605.000 C 84.220 605.136,84.400 605.787,84.400 606.447 M85.594 611.724 C 85.589 612.695,85.495 612.857,85.200 612.400 C 84.687 611.607,84.687 609.883,85.200 610.200 C 85.420 610.336,85.597 611.022,85.594 611.724 M78.829 614.131 C 78.524 614.436,78.400 614.153,78.400 613.147 C 78.400 611.308,78.962 610.742,79.129 612.413 C 79.200 613.122,79.065 613.895,78.829 614.131 M86.773 616.700 C 86.749 618.050,86.703 618.112,86.322 617.322 C 86.088 616.839,86.005 616.164,86.136 615.822 C 86.540 614.769,86.801 615.129,86.773 616.700 M77.829 620.667 C 77.706 620.988,77.419 621.135,77.191 620.994 C 76.784 620.743,77.036 618.234,77.553 617.400 C 77.871 616.886,78.126 619.895,77.829 620.667 M88.394 622.300 C 88.397 623.015,88.241 623.600,88.047 623.600 C 87.587 623.600,87.237 621.746,87.503 620.726 C 87.800 619.591,88.386 620.626,88.394 622.300 M44.800 623.600 C 44.800 623.820,44.305 623.987,43.700 623.972 C 42.725 623.947,42.691 623.905,43.400 623.600 C 44.493 623.131,44.800 623.131,44.800 623.600 M25.600 629.957 C 25.600 630.485,24.596 630.776,23.639 630.526 C 22.312 630.179,22.663 629.600,24.200 629.600 C 24.970 629.600,25.600 629.761,25.600 629.957 M35.200 637.600 C 35.200 637.820,34.840 638.000,34.400 638.000 C 33.960 638.000,33.600 637.820,33.600 637.600 C 33.600 637.380,33.960 637.200,34.400 637.200 C 34.840 637.200,35.200 637.380,35.200 637.600 M-0.000 652.978 L 0.000 654.000 11.900 653.994 C 23.692 653.988,25.558 653.798,24.477 652.717 C 24.084 652.323,21.106 652.171,11.981 652.078 L -0.000 651.956 -0.000 652.978 " stroke="none" fill="#858585" fill-rule="evenodd"></path></g></svg>